<svg width="30" height="31" viewBox="0 0 30 31" fill="none" xmlns="http://www.w3.org/2000/svg">
<g id="fi-rs-list-check" clip-path="url(#clip0_20_17)">
<path id="Vector" d="M2.34771 7.1907L0.366455 5.26228L2.13396 3.54191L4.11646 5.47033C4.35441 5.6918 4.67097 5.8154 5.00021 5.8154C5.32944 5.8154 5.646 5.6918 5.88395 5.47033L10.3665 1.10858L12.134 2.82895L7.65145 7.1907C7.30323 7.5297 6.8898 7.79861 6.43479 7.98208C5.97978 8.16555 5.49209 8.25998 4.99958 8.25998C4.50707 8.25998 4.01938 8.16555 3.56437 7.98208C3.10936 7.79861 2.69593 7.5297 2.34771 7.1907V7.1907ZM15.0002 7.04348H30.0002V4.61015H15.0002V7.04348ZM5.00021 17.9935C5.49285 17.9948 5.98086 17.901 6.43597 17.7174C6.89108 17.5339 7.30422 17.2642 7.65145 16.924L12.134 12.5623L10.3665 10.8419L5.88395 15.2037C5.646 15.4251 5.32944 15.5487 5.00021 15.5487C4.67097 15.5487 4.35441 15.4251 4.11646 15.2037L2.13396 13.2752L0.366455 14.9956L2.34771 16.924C2.69525 17.2641 3.10863 17.5337 3.56392 17.7173C4.01922 17.9009 4.50739 17.9947 5.00021 17.9935V17.9935ZM15.0002 16.7768H30.0002V14.3435H15.0002V16.7768ZM5.00021 27.7268C5.49285 27.7282 5.98086 27.6344 6.43597 27.4508C6.89108 27.2672 7.30422 26.9975 7.65145 26.6574L12.134 22.2956L10.3665 20.5752L5.88395 24.937C5.646 25.1585 5.32944 25.2821 5.00021 25.2821C4.67097 25.2821 4.35441 25.1585 4.11646 24.937L2.13396 23.0086L0.366455 24.7289L2.34771 26.6574C2.69525 26.9974 3.10863 27.2671 3.56392 27.4506C4.01922 27.6342 4.50739 27.7281 5.00021 27.7268V27.7268ZM15.0002 26.5101H30.0002V24.0768H15.0002V26.5101Z" fill="#00B4D8"/>
</g>
<defs>
<clipPath id="clip0_20_17">
<rect width="30" height="29.2" fill="white" transform="translate(0 0.960022)"/>
</clipPath>
</defs>
</svg>
