<svg width="30" height="31" viewBox="0 0 30 31" fill="none" xmlns="http://www.w3.org/2000/svg">
<g id="fi-rs-shield" clip-path="url(#clip0_20_27)">
<rect width="30" height="29.2" transform="translate(0 0.960022)" fill="white"/>
<g id="01 align center">
<path id="Vector" d="M24.9364 4.1776L15.0002 0.97168L5.06393 4.1776C4.31833 4.41609 3.66909 4.87757 3.20875 5.49626C2.7484 6.11496 2.50043 6.85929 2.50018 7.6232V15.5607C2.50018 24.7149 14.0002 29.7702 14.4927 29.9807L14.9352 30.1717L15.3952 30.0232C15.8889 29.8626 27.5002 25.9961 27.5002 15.5607V7.6232C27.4997 6.85934 27.2517 6.11509 26.7914 5.49643C26.3311 4.87777 25.6819 4.41625 24.9364 4.1776V4.1776ZM25.0002 15.5607C25.0002 23.1807 17.0639 26.7735 15.0589 27.5583C13.0502 26.5813 5.00018 22.2451 5.00018 15.5607V7.6232C5.00029 7.36851 5.08301 7.12036 5.23654 6.91413C5.39007 6.70789 5.60657 6.55409 5.85518 6.47466L15.0002 3.52303L24.1452 6.47466C24.394 6.55377 24.6107 6.70748 24.7643 6.91379C24.9179 7.1201 25.0005 7.36842 25.0002 7.6232V15.5607Z" fill="#00B4D8"/>
</g>
</g>
<defs>
<clipPath id="clip0_20_27">
<rect width="30" height="29.2" fill="white" transform="translate(0 0.960022)"/>
</clipPath>
</defs>
</svg>
