<svg width="30" height="30" viewBox="0 0 30 30" fill="none" xmlns="http://www.w3.org/2000/svg">
<g id="fi-rs-chart-tree" clip-path="url(#clip0_20_13)">
<path id="Vector" d="M26.2498 20.0607V18.6896C26.2498 17.7215 25.8547 16.7931 25.1514 16.1086C24.4482 15.4241 23.4943 15.0396 22.4998 15.0396H16.2498V12.4846C17.7673 12.183 19.1158 11.3438 20.0338 10.1296C20.9517 8.91535 21.3738 7.41261 21.2181 5.9127C21.0624 4.41279 20.3401 3.02257 19.1912 2.01156C18.0423 1.00056 16.5486 0.440796 14.9998 0.440796C13.4509 0.440796 11.9572 1.00056 10.8083 2.01156C9.65941 3.02257 8.93709 4.41279 8.78142 5.9127C8.62574 7.41261 9.0478 8.91535 9.96577 10.1296C10.8837 11.3438 12.2322 12.183 13.7498 12.4846V15.0396H7.49977C6.50521 15.0396 5.55138 15.4241 4.84812 16.1086C4.14486 16.7931 3.74977 17.7215 3.74977 18.6896V20.0607C2.57144 20.3569 1.54453 21.0611 0.861516 22.0415C0.1785 23.0218 -0.113724 24.211 0.0396195 25.3861C0.192963 26.5612 0.781345 27.6415 1.69448 28.4245C2.60761 29.2075 3.7828 29.6395 4.99977 29.6395C6.21673 29.6395 7.39193 29.2075 8.30506 28.4245C9.21819 27.6415 9.80657 26.5612 9.95992 25.3861C10.1133 24.211 9.82104 23.0218 9.13802 22.0415C8.455 21.0611 7.42809 20.3569 6.24977 20.0607V18.6896C6.24977 18.3669 6.38146 18.0574 6.61588 17.8292C6.85031 17.6011 7.16825 17.4729 7.49977 17.4729H13.7498V20.0607C12.5714 20.3569 11.5445 21.0611 10.8615 22.0415C10.1785 23.0218 9.88628 24.211 10.0396 25.3861C10.193 26.5612 10.7813 27.6415 11.6945 28.4245C12.6076 29.2075 13.7828 29.6395 14.9998 29.6395C16.2167 29.6395 17.3919 29.2075 18.3051 28.4245C19.2182 27.6415 19.8066 26.5612 19.9599 25.3861C20.1133 24.211 19.821 23.0218 19.138 22.0415C18.455 21.0611 17.4281 20.3569 16.2498 20.0607V17.4729H22.4998C22.8313 17.4729 23.1492 17.6011 23.3837 17.8292C23.6181 18.0574 23.7498 18.3669 23.7498 18.6896V20.0607C22.5714 20.3569 21.5445 21.0611 20.8615 22.0415C20.1785 23.0218 19.8863 24.211 20.0396 25.3861C20.193 26.5612 20.7813 27.6415 21.6945 28.4245C22.6076 29.2075 23.7828 29.6395 24.9998 29.6395C26.2167 29.6395 27.3919 29.2075 28.3051 28.4245C29.2182 27.6415 29.8066 26.5612 29.9599 25.3861C30.1133 24.211 29.821 23.0218 29.138 22.0415C28.455 21.0611 27.4281 20.3569 26.2498 20.0607V20.0607ZM11.2498 6.52289C11.2498 5.80099 11.4697 5.0953 11.8818 4.49506C12.2938 3.89482 12.8795 3.42699 13.5647 3.15073C14.2499 2.87447 15.0039 2.80219 15.7314 2.94302C16.4588 3.08386 17.127 3.43149 17.6514 3.94195C18.1759 4.45241 18.533 5.10278 18.6777 5.81081C18.8224 6.51884 18.7481 7.25273 18.4643 7.91968C18.1805 8.58663 17.6998 9.15669 17.0832 9.55775C16.4665 9.95882 15.7414 10.1729 14.9998 10.1729C14.0052 10.1729 13.0514 9.78834 12.3481 9.10383C11.6449 8.41932 11.2498 7.49093 11.2498 6.52289V6.52289ZM7.49977 24.7729C7.49977 25.2542 7.35315 25.7246 7.07844 26.1248C6.80374 26.5249 6.41329 26.8368 5.95648 27.021C5.49966 27.2052 4.99699 27.2534 4.51204 27.1595C4.02709 27.0656 3.58163 26.8338 3.232 26.4935C2.88237 26.1532 2.64427 25.7196 2.5478 25.2476C2.45134 24.7756 2.50085 24.2863 2.69007 23.8417C2.87929 23.3971 3.19972 23.017 3.61084 22.7496C4.02197 22.4823 4.50531 22.3396 4.99977 22.3396C5.66281 22.3396 6.29869 22.5959 6.76753 23.0523C7.23638 23.5086 7.49977 24.1275 7.49977 24.7729ZM17.4998 24.7729C17.4998 25.2542 17.3531 25.7246 17.0784 26.1248C16.8037 26.5249 16.4133 26.8368 15.9565 27.021C15.4997 27.2052 14.997 27.2534 14.512 27.1595C14.0271 27.0656 13.5816 26.8338 13.232 26.4935C12.8824 26.1532 12.6443 25.7196 12.5478 25.2476C12.4513 24.7756 12.5008 24.2863 12.6901 23.8417C12.8793 23.3971 13.1997 23.017 13.6108 22.7496C14.022 22.4823 14.5053 22.3396 14.9998 22.3396C15.6628 22.3396 16.2987 22.5959 16.7675 23.0523C17.2364 23.5086 17.4998 24.1275 17.4998 24.7729ZM24.9998 27.2062C24.5053 27.2062 24.022 27.0635 23.6108 26.7961C23.1997 26.5288 22.8793 26.1487 22.6901 25.7041C22.5008 25.2595 22.4513 24.7702 22.5478 24.2982C22.6443 23.8262 22.8824 23.3926 23.232 23.0523C23.5816 22.712 24.0271 22.4802 24.512 22.3863C24.997 22.2924 25.4997 22.3406 25.9565 22.5248C26.4133 22.709 26.8037 23.0208 27.0784 23.421C27.3531 23.8212 27.4998 24.2916 27.4998 24.7729C27.4998 25.4183 27.2364 26.0372 26.7675 26.4935C26.2987 26.9499 25.6628 27.2062 24.9998 27.2062Z" fill="#00B4D8"/>
</g>
<defs>
<clipPath id="clip0_20_13">
<rect width="30" height="29.2" fill="white" transform="translate(0 0.440002)"/>
</clipPath>
</defs>
</svg>
