<svg width="30" height="30" viewBox="0 0 30 30" fill="none" xmlns="http://www.w3.org/2000/svg">
<g id="fi-rr-headset">
<path id="Vector" d="M26.2499 15.5555V13.8229C26.2499 10.9188 25.0646 8.13363 22.9549 6.08011C20.8451 4.02658 17.9836 2.87292 14.9999 2.87292C12.0162 2.87292 9.15474 4.02658 7.04496 6.08011C4.93517 8.13363 3.74991 10.9188 3.74991 13.8229V15.5555C2.43886 16.1174 1.36591 17.1006 0.710685 18.3405C0.055461 19.5804 -0.142266 21.0018 0.150605 22.3667C0.443475 23.7315 1.20917 24.957 2.3195 25.8381C3.42982 26.7191 4.81739 27.2021 6.24991 27.2063C6.91295 27.2063 7.54883 26.9499 8.01767 26.4936C8.48652 26.0372 8.74991 25.4183 8.74991 24.7729V17.4729C8.74991 16.8276 8.48652 16.2086 8.01767 15.7523C7.54883 15.296 6.91295 15.0396 6.24991 15.0396V13.8229C6.24991 11.5642 7.17178 9.39792 8.81272 7.80073C10.4537 6.20355 12.6793 5.30626 14.9999 5.30626C17.3206 5.30626 19.5461 6.20355 21.1871 7.80073C22.828 9.39792 23.7499 11.5642 23.7499 13.8229V15.0396C23.0869 15.0396 22.451 15.296 21.9821 15.7523C21.5133 16.2086 21.2499 16.8276 21.2499 17.4729V24.7729H17.4999C17.1684 24.7729 16.8504 24.9011 16.616 25.1293C16.3816 25.3574 16.2499 25.6669 16.2499 25.9896C16.2499 26.3123 16.3816 26.6217 16.616 26.8499C16.8504 27.0781 17.1684 27.2063 17.4999 27.2063H23.7499C25.1824 27.2021 26.57 26.7191 27.6803 25.8381C28.7906 24.957 29.5563 23.7315 29.8492 22.3667C30.1421 21.0018 29.9444 19.5804 29.2891 18.3405C28.6339 17.1006 27.561 16.1174 26.2499 15.5555V15.5555ZM6.24991 24.7729C5.25535 24.7729 4.30152 24.3884 3.59826 23.7039C2.895 23.0194 2.49991 22.091 2.49991 21.1229C2.49991 20.1549 2.895 19.2265 3.59826 18.542C4.30152 17.8575 5.25535 17.4729 6.24991 17.4729V24.7729ZM23.7499 24.7729V17.4729C24.7445 17.4729 25.6983 17.8575 26.4016 18.542C27.1048 19.2265 27.4999 20.1549 27.4999 21.1229C27.4999 22.091 27.1048 23.0194 26.4016 23.7039C25.6983 24.3884 24.7445 24.7729 23.7499 24.7729Z" fill="#00B4D8"/>
</g>
</svg>
