<svg width="70" height="70" viewBox="0 0 70 70" fill="none" xmlns="http://www.w3.org/2000/svg">
<g id="fi-rs-shield-check" clip-path="url(#clip0_18_50)">
<g id="01 align center">
<path id="Vector" d="M34.8488 70.0279L33.8163 69.57C32.6671 69.0654 5.83377 56.9466 5.83377 35.0016V15.9733C5.83479 14.1421 6.41356 12.358 7.48764 10.8749C8.56172 9.3918 10.0764 8.28542 11.8159 7.71329L35.0004 0.0278778L58.185 7.71329C59.9245 8.28542 61.4392 9.3918 62.5132 10.8749C63.5873 12.358 64.1661 14.1421 64.1671 15.9733V35.0016C64.1671 60.0179 37.0771 69.287 35.9221 69.672L34.8488 70.0279ZM35.0004 6.14413L13.6621 13.22C13.0815 13.4096 12.5758 13.7781 12.2175 14.2727C11.8591 14.7672 11.6665 15.3625 11.6671 15.9733V35.0016C11.6671 51.0258 30.4504 61.4208 35.1375 63.7629C39.8159 61.8816 58.3338 53.2687 58.3338 35.0016V15.9733C58.3344 15.3625 58.1417 14.7672 57.7834 14.2727C57.425 13.7781 56.9193 13.4096 56.3388 13.22L35.0004 6.14413Z" fill="#00B4D8"/>
<path id="Vector_2" d="M32.4079 42.4142H32.3116C31.5734 42.4029 30.8451 42.242 30.1708 41.9412C29.4966 41.6404 28.8903 41.206 28.3887 40.6642L21.6629 33.6642L25.8658 29.6333L32.4108 36.4583L47.522 21.3471L51.6462 25.4712L36.3016 40.8159C35.7905 41.3265 35.1832 41.7307 34.5148 42.0051C33.8465 42.2794 33.1303 42.4185 32.4079 42.4142Z" fill="#00B4D8"/>
</g>
</g>
<defs>
<clipPath id="clip0_18_50">
<rect width="70" height="70" fill="white"/>
</clipPath>
</defs>
</svg>
