<svg width="70" height="70" viewBox="0 0 70 70" fill="none" xmlns="http://www.w3.org/2000/svg">
<path id="Vector" d="M35 8.75C39.8125 8.75 43.75 12.6875 43.75 17.5C43.75 22.3125 39.8125 26.25 35 26.25C30.1875 26.25 26.25 22.3125 26.25 17.5C26.25 12.6875 30.1875 8.75 35 8.75ZM35 52.5C46.8125 52.5 60.375 58.1438 61.25 61.25H8.75C9.75625 58.1 23.2312 52.5 35 52.5ZM35 0C25.3313 0 17.5 7.83125 17.5 17.5C17.5 27.1687 25.3313 35 35 35C44.6687 35 52.5 27.1687 52.5 17.5C52.5 7.83125 44.6687 0 35 0ZM35 43.75C23.3187 43.75 0 49.6125 0 61.25V70H70V61.25C70 49.6125 46.6813 43.75 35 43.75Z" fill="#00B4D8"/>
</svg>
