<svg width="15" height="15" viewBox="0 0 15 15" fill="none" xmlns="http://www.w3.org/2000/svg">
<path id="Vector" d="M7.50952 0C3.37962 0 0.017615 3.35878 0.0161149 7.48828C0.0153648 8.80828 0.361137 10.0969 1.0167 11.2324L0 15L3.9247 14.0728C5.01906 14.6698 6.251 14.9831 7.50513 14.9839H7.50806C11.6372 14.9839 14.9977 11.6244 15 7.49561C15.0015 5.49386 14.223 3.6118 12.8084 2.1958C11.3937 0.780551 9.51372 0.00075 7.50952 0ZM7.50806 1.5C9.11021 1.50075 10.6159 2.12535 11.7477 3.25635C12.8796 4.38885 13.5014 5.89364 13.4999 7.49414C13.4984 10.7971 10.8114 13.4839 7.50659 13.4839C6.50674 13.4831 5.51634 13.2321 4.64401 12.7559L4.13859 12.4805L3.58043 12.6123L2.10372 12.9609L2.46411 11.6221L2.62672 11.0215L2.31614 10.4824C1.79259 9.57642 1.51551 8.54053 1.51626 7.48828C1.51776 4.18678 4.20548 1.5 7.50806 1.5ZM4.8579 4.03125C4.73263 4.03125 4.5301 4.07812 4.35834 4.26562C4.18657 4.45237 3.70202 4.90468 3.70202 5.82568C3.70202 6.74668 4.37298 7.63696 4.46674 7.76221C4.55975 7.88671 5.76187 9.83643 7.66481 10.5864C9.24596 11.2097 9.5671 11.0867 9.91063 11.0552C10.2542 11.0244 11.0189 10.6033 11.1749 10.166C11.3309 9.72877 11.3313 9.35264 11.2848 9.27539C11.2383 9.19739 11.1134 9.15088 10.9259 9.05713C10.7391 8.96338 9.8187 8.51147 9.64694 8.44922C9.47517 8.38697 9.34953 8.35547 9.22502 8.54297C9.10051 8.73047 8.74268 9.15089 8.63317 9.27539C8.52366 9.40064 8.41488 9.41748 8.22736 9.32373C8.03985 9.22923 7.43693 9.03105 6.72136 8.39355C6.1648 7.8978 5.78926 7.28613 5.67975 7.09863C5.57099 6.91188 5.6695 6.80931 5.76326 6.71631C5.84727 6.63231 5.94931 6.49768 6.04307 6.38818C6.13608 6.27868 6.16833 6.20067 6.23059 6.07617C6.29284 5.95167 6.26098 5.8418 6.21447 5.74805C6.16797 5.6543 5.80378 4.72987 5.63727 4.35938C5.497 4.04813 5.34887 4.04089 5.21535 4.03564C5.10659 4.03114 4.98241 4.03125 4.8579 4.03125Z" fill="#00B4D8"/>
</svg>
